<svg width="657" height="613" viewBox="0 0 657 613" fill="none" xmlns="http://www.w3.org/2000/svg">
<path d="M558.552 572.115H172.615C157.51 572.115 145.218 559.805 145.218 544.679V254.436C145.218 239.309 157.51 227 172.615 227H558.552C573.657 227 585.949 239.309 585.949 254.436V544.679C585.949 559.805 573.657 572.115 558.552 572.115ZM172.615 228.702C158.454 228.702 146.918 240.236 146.918 254.436V544.679C146.918 558.86 158.435 570.413 172.615 570.413H558.552C572.713 570.413 584.249 558.879 584.249 544.679V254.436C584.249 240.255 572.713 228.702 558.552 228.702H172.615Z" fill="#B3DCFF"/>
<path d="M448.152 163.904C448.152 163.904 453.382 204.349 424.21 235.397C395.019 266.444 329.236 255.383 329.236 255.383C329.236 255.383 340.112 218.682 363.978 203.555C387.825 188.428 434.689 183.229 448.17 163.904H448.152Z" fill="#2262ED"/>
<path d="M414.203 87.2114C414.203 87.2114 438.258 132.554 417.602 182.112C396.926 231.652 314.49 247.781 314.49 247.781C314.49 247.781 311.091 199.697 332.522 171.297C353.952 142.896 406.896 115.971 414.222 87.2303L414.203 87.2114Z" fill="#4C9FF3"/>
<path d="M216.798 272.531H61.1582V274.422H216.798V272.531Z" fill="#78C2FF"/>
<path d="M40.3132 352.249L9.17773 303.522L25.0004 310.708L40.3132 352.249Z" fill="#D6D6D6"/>
<path d="M40.3132 352.25L38.4062 322.885L27.0962 316.418L40.3132 352.25Z" fill="#E8E8E8"/>
<path d="M16.3339 314.736L12.4443 319.86L40.3133 352.25L16.3339 314.736Z" fill="#C2C2C2"/>
<path d="M191.459 203.062H577.395C592.047 203.062 603.943 214.975 603.943 229.648V519.89C603.943 534.563 592.047 546.475 577.395 546.475H191.459C176.807 546.475 164.912 534.563 164.912 519.89V229.648C164.912 214.975 176.807 203.062 191.459 203.062Z" fill="#E3F2FF"/>
<path d="M603.943 229.648V237.173H164.912V229.648C164.912 214.956 176.788 203.062 191.459 203.062H577.395C592.066 203.062 603.943 214.956 603.943 229.648Z" fill="#4DA8F2"/>
<path d="M338.677 282.931H214.778C209.115 282.931 204.525 287.527 204.525 293.198V325.72C204.525 331.391 209.115 335.987 214.778 335.987H338.677C344.34 335.987 348.93 331.391 348.93 325.72V293.198C348.93 287.527 344.34 282.931 338.677 282.931Z" fill="#B3DCFF"/>
<path d="M338.677 407.29H214.778C208.66 407.29 203.675 402.298 203.675 396.172V363.65C203.675 357.524 208.66 352.532 214.778 352.532H338.677C344.795 352.532 349.78 357.524 349.78 363.65V396.172C349.78 402.298 344.795 407.29 338.677 407.29ZM214.778 354.234C209.585 354.234 205.375 358.45 205.375 363.65V396.172C205.375 401.372 209.585 405.588 214.778 405.588H338.677C343.851 405.588 348.08 401.372 348.08 396.172V363.65C348.08 358.469 343.87 354.234 338.677 354.234H214.778Z" fill="#B3DCFF"/>
<path d="M496.375 423.835H384.068C382.598 423.835 381.406 425.029 381.406 426.502V429.735C381.406 431.207 382.598 432.401 384.068 432.401H496.375C497.845 432.401 499.037 431.207 499.037 429.735V426.502C499.037 425.029 497.845 423.835 496.375 423.835Z" fill="#B3DCFF"/>
<path d="M384.068 454.922H496.356C497.829 454.922 499.018 456.113 499.018 457.588V460.802C499.018 462.277 497.828 463.487 496.337 463.487H384.049C382.576 463.487 381.387 462.296 381.387 460.821V457.607C381.387 456.132 382.576 454.941 384.049 454.941L384.068 454.922Z" fill="#B3DCFF"/>
<path d="M550.092 407.292H396.001C387.486 407.292 380.556 400.353 380.556 391.825V297.548C380.556 289.02 387.486 282.081 396.001 282.081H550.092C558.608 282.081 565.537 289.02 565.537 297.548V391.825C565.537 400.353 558.608 407.292 550.092 407.292ZM396.001 283.783C388.43 283.783 382.255 289.966 382.255 297.548V391.825C382.255 399.407 388.411 405.59 396.001 405.59H550.092C557.664 405.59 563.838 399.407 563.838 391.825V297.548C563.838 289.966 557.664 283.783 550.092 283.783H396.001Z" fill="#B3DCFF"/>
<path d="M543.484 435.086L533.722 426.558C532.929 425.858 532.835 424.648 533.533 423.835C534.232 423.041 535.44 422.947 536.252 423.646L543.163 429.678L553 418.692C553.718 417.898 554.926 417.841 555.719 418.541C556.512 419.241 556.569 420.47 555.87 421.264L543.503 435.086H543.484Z" fill="#4DA8F2"/>
<path d="M543.484 468.1L533.722 459.573C532.929 458.873 532.835 457.663 533.533 456.85C534.232 456.056 535.44 455.961 536.252 456.661L543.163 462.693L553 451.707C553.718 450.913 554.926 450.856 555.719 451.556C556.512 452.274 556.569 453.484 555.87 454.278L543.503 468.1H543.484Z" fill="#4DA8F2"/>
<path d="M384.068 487.935H496.356C497.829 487.935 499.018 489.126 499.018 490.601V493.815C499.018 495.29 497.829 496.481 496.356 496.481H384.068C382.595 496.481 381.406 495.29 381.406 493.815V490.601C381.406 489.126 382.595 487.935 384.068 487.935Z" fill="#B3DCFF"/>
<path d="M543.484 501.114L533.722 492.587C532.929 491.887 532.835 490.677 533.533 489.864C534.232 489.07 535.44 488.975 536.252 489.675L543.163 495.707L553 484.702C553.718 483.908 554.926 483.851 555.719 484.551C556.512 485.25 556.569 486.479 555.87 487.274L543.503 501.096L543.484 501.114Z" fill="#4DA8F2"/>
<g opacity="0.83">
<path d="M93.3321 70.6665H324.818C336.884 70.6665 346.664 80.461 346.664 92.5434V227.227C346.664 239.31 336.884 249.104 324.818 249.104H93.3321C81.2669 249.104 71.4863 239.31 71.4863 227.227V92.5434C71.4863 80.461 81.2669 70.6665 93.3321 70.6665Z" fill="#E0F1FF"/>
</g>
<path d="M123.051 174.359C127.054 175.721 131.34 176.477 135.796 176.534C149.297 176.704 161.381 170.388 169.065 160.462C174.39 153.579 177.619 144.976 177.732 135.597C177.732 134.671 177.732 133.744 177.675 132.818C177.449 128.658 176.618 124.649 175.259 120.905C169.556 105.155 154.583 93.8286 136.854 93.6017C127.3 93.4693 118.482 96.5892 111.402 101.94C101.527 109.409 95.0691 121.189 94.8992 134.538C94.6726 152.974 106.474 168.762 123.033 174.359H123.051ZM105.284 134.671C105.416 124.744 110.174 115.951 117.5 110.354C122.825 106.27 129.509 103.888 136.74 103.982C150.014 104.153 161.249 112.642 165.535 124.46C166.554 127.277 167.177 130.284 167.347 133.404C167.385 134.084 167.385 134.784 167.385 135.484C167.291 142.518 164.874 148.965 160.89 154.127C155.131 161.577 146.068 166.304 135.947 166.191C132.605 166.153 129.396 165.567 126.375 164.565C113.969 160.367 105.114 148.53 105.284 134.708V134.671Z" fill="#78C2FF"/>
<path d="M160.871 154.109L169.065 160.462C161.381 170.389 149.296 176.704 135.796 176.534C131.34 176.477 127.054 175.721 123.051 174.36L126.374 164.527C129.377 165.548 132.586 166.116 135.928 166.153C146.049 166.286 155.112 161.54 160.871 154.109Z" fill="#1A598C"/>
<path d="M175.259 120.906L165.516 124.461C166.8 128.034 167.404 131.778 167.366 135.484C167.272 142.518 164.855 148.966 160.871 154.128L169.066 160.481C174.39 153.598 177.619 144.995 177.732 135.616C177.789 130.53 176.958 125.595 175.259 120.925V120.906Z" fill="#2273B5"/>
<path d="M111.42 101.94C118.501 96.5892 127.319 93.4693 136.873 93.6017C154.583 93.8286 169.556 105.174 175.277 120.905L165.535 124.46C161.248 112.642 150.033 104.134 136.74 103.963C129.509 103.869 122.844 106.251 117.5 110.336L111.42 101.921V101.94Z" fill="#4DA8F2"/>
<path d="M247.575 309.648C247.575 309.384 247.575 309.138 247.575 308.873C247.575 308.779 247.575 308.703 247.575 308.608C247.499 307.058 247.178 305.583 246.668 304.184C244.554 298.341 238.984 294.125 232.394 294.03C228.844 293.992 225.559 295.146 222.934 297.131C219.271 299.911 216.873 304.278 216.798 309.251C216.703 316.096 221.103 321.958 227.258 324.057C228.75 324.567 230.336 324.851 231.997 324.87C233.886 324.889 235.679 324.586 237.36 323.981C240.154 322.979 242.571 321.201 244.365 318.895C246.102 316.645 247.254 313.884 247.518 310.877C247.556 310.48 247.575 310.064 247.575 309.648ZM220.65 309.308C220.687 305.621 222.462 302.35 225.181 300.27C227.164 298.757 229.637 297.869 232.337 297.906C237.265 297.963 241.438 301.121 243.043 305.508C243.421 306.566 243.647 307.663 243.723 308.835C243.723 309.1 243.742 309.346 243.723 309.611C243.723 310.726 243.534 311.804 243.213 312.825C242.798 314.186 242.156 315.434 241.306 316.531C241.004 316.928 240.664 317.306 240.305 317.666C238.191 319.764 235.264 321.05 232.035 321.012C231.186 321.012 230.355 320.899 229.562 320.71C229.203 320.634 228.825 320.521 228.485 320.407C223.878 318.838 220.593 314.451 220.65 309.308Z" fill="#E3F2FF"/>
<path d="M302.576 93.5825H223.746C213.131 93.5825 204.525 102.2 204.525 112.831V205.709C204.525 216.34 213.131 224.957 223.746 224.957H302.576C313.192 224.957 321.797 216.34 321.797 205.709V112.831C321.797 102.2 313.192 93.5825 302.576 93.5825Z" fill="#78C2FF"/>
<path d="M177.392 194.706H100.583C98.1739 194.706 96.2212 196.661 96.2212 199.073V199.641C96.2212 202.053 98.1739 204.008 100.583 204.008H177.392C179.801 204.008 181.754 202.053 181.754 199.641V199.073C181.754 196.661 179.801 194.706 177.392 194.706Z" fill="#B3DCFF"/>
<path d="M177.392 215.674H100.583C98.1739 215.674 96.2212 217.629 96.2212 220.042V220.609C96.2212 223.021 98.1739 224.977 100.583 224.977H177.392C179.801 224.977 181.754 223.021 181.754 220.609V220.042C181.754 217.629 179.801 215.674 177.392 215.674Z" fill="#B3DCFF"/>
<g opacity="0.78">
<path d="M488.067 277.599H642.158C650.221 277.599 656.754 284.141 656.754 292.215V386.492C656.754 394.566 650.221 401.108 642.158 401.108H488.067C480.005 401.108 473.472 394.566 473.472 386.492V292.234C473.472 284.16 480.005 277.618 488.067 277.618V277.599Z" fill="#4DA8F2"/>
</g>
<path d="M497.451 292.348H548.015C551.055 292.348 553.529 294.825 553.529 297.869V339.165C553.529 342.209 551.055 344.686 548.015 344.686H497.451C494.411 344.686 491.938 342.209 491.938 339.165V297.869C491.938 294.825 494.411 292.348 497.451 292.348Z" fill="#E3F2FF"/>
<path d="M567.048 292.348H639.836C641.611 292.348 643.065 293.803 643.065 295.581V303.069C643.065 304.846 641.611 306.302 639.836 306.302H567.048C565.273 306.302 563.819 304.846 563.819 303.069V295.562C563.819 293.785 565.273 292.329 567.048 292.329V292.348Z" fill="#E3F2FF"/>
<path d="M567.067 314.188H639.855C641.63 314.188 643.084 315.643 643.084 317.421V324.909C643.084 326.686 641.63 328.142 639.855 328.142H567.067C565.292 328.142 563.838 326.686 563.838 324.909V317.421C563.838 315.643 565.292 314.188 567.067 314.188Z" fill="#E3F2FF"/>
<path d="M640.138 377H612.061C610.445 377 609.135 378.312 609.135 379.931V381.273C609.135 382.892 610.445 384.204 612.061 384.204H640.138C641.754 384.204 643.065 382.892 643.065 381.273V379.931C643.065 378.312 641.754 377 640.138 377Z" fill="#E3F2FF"/>
<g style="mix-blend-mode:multiply" opacity="0.78">
<path d="M139.516 360.191H263.416C269.081 360.191 273.669 364.786 273.669 370.459V402.981C273.669 408.653 269.081 413.248 263.416 413.248H139.516C133.852 413.248 129.264 408.653 129.264 402.981V370.459C129.264 364.786 133.852 360.191 139.516 360.191Z" fill="#4DA8F2"/>
</g>
<path d="M505.042 83.1272L504.645 81.4632C507.666 80.7636 509.233 80.1396 509.252 80.1396L509.875 81.728C509.875 81.728 508.176 82.3897 505.042 83.1272Z" fill="#C2BEBC"/>
<path d="M12.1608 285.957C11.1034 283.007 10.1027 279.868 9.15862 276.635L10.8013 276.162C11.7265 279.358 12.7272 282.459 13.7657 285.37L12.1608 285.938V285.957ZM6.68516 267.181C5.94878 264.08 5.26903 260.865 4.66483 257.613L6.34529 257.292C6.94949 260.506 7.62923 263.702 8.3656 266.784L6.70403 267.181H6.68516ZM3.04104 247.989C2.569 244.812 2.15361 241.541 1.79486 238.308L3.49419 238.119C3.85294 241.352 4.26833 244.585 4.72149 247.743L3.02215 247.989H3.04104ZM0.926315 228.57C0.699737 225.337 0.510925 222.065 0.397637 218.813L2.09696 218.756C2.21025 221.99 2.38018 225.242 2.60676 228.456L0.907429 228.57H0.926315ZM1.94591 209.056H0.246582C0.246582 205.804 0.303227 202.533 0.416515 199.281L2.11585 199.338C2.00256 202.552 1.94591 205.823 1.94591 209.038V209.056ZM2.6634 189.657L0.964078 189.524C1.20954 186.272 1.51163 183.001 1.8515 179.805L3.55083 179.994C3.19208 183.19 2.88998 186.442 2.6634 189.657ZM4.79701 170.37L3.09768 170.124C3.5886 166.891 4.13615 163.658 4.74036 160.481L6.4208 160.802C5.8166 163.941 5.26905 167.175 4.79701 170.37ZM8.44111 151.31L6.77955 150.913C7.51593 147.737 8.34671 144.541 9.21526 141.44L10.8579 141.894C9.9894 144.976 9.17749 148.134 8.44111 151.292V151.31ZM13.6902 132.629L12.0664 132.1C13.086 128.999 14.2 125.898 15.3517 122.891L16.9566 123.496C15.8238 126.484 14.7286 129.547 13.709 132.629H13.6902ZM20.6196 114.534L19.0525 113.834C20.3742 110.847 21.7714 107.859 23.2253 104.985L24.7547 105.76C23.3197 108.615 21.9225 111.565 20.6196 114.534ZM29.324 97.2327L27.8323 96.3818C29.4561 93.5456 31.1555 90.7282 32.9115 88.0243L34.3464 88.9509C32.6093 91.6358 30.91 94.4153 29.3051 97.2327H29.324ZM485.575 85.3015V83.5809C488.86 83.5431 492.089 83.354 495.167 83.0136L495.355 84.7154C492.221 85.0557 488.936 85.2448 485.575 85.2826V85.3015ZM475.794 85.0368C472.622 84.8288 469.337 84.5074 466.07 84.0725L466.297 82.3708C469.544 82.8056 472.773 83.1271 475.908 83.3351L475.794 85.0368ZM456.422 82.4653C453.288 81.8413 450.078 81.1228 446.906 80.3098L447.321 78.6458C450.474 79.4589 453.646 80.1774 456.762 80.7825L456.441 82.4653H456.422ZM39.8598 80.9715L38.4815 79.9694C40.4074 77.3411 42.4277 74.7507 44.4858 72.2548L45.8075 73.3515C43.7683 75.8285 41.7668 78.3811 39.8598 80.9905V80.9715ZM437.503 77.6437C434.463 76.6983 431.347 75.6394 428.251 74.5238L428.836 72.9166C431.895 74.0322 434.991 75.0722 438.012 76.0176L437.503 77.6437ZM419.15 70.988C416.204 69.7778 413.183 68.4542 410.2 67.0928L410.918 65.5424C413.882 66.9038 416.865 68.2084 419.792 69.4186L419.15 71.0069V70.988ZM52.1705 66.0529L50.9243 64.8806C53.1334 62.4981 55.4559 60.1724 57.7972 57.9223L58.9678 59.1703C56.6454 61.3825 54.3607 63.6893 52.1705 66.0529ZM401.42 62.8574C398.569 61.4203 395.661 59.8888 392.791 58.3194L393.603 56.8256C396.454 58.395 399.343 59.9077 402.175 61.3447L401.401 62.8763L401.42 62.8574ZM384.314 53.4978C383.2 52.836 382.086 52.1742 380.953 51.4935C379.367 50.5292 377.686 49.5459 375.949 48.5627L376.799 47.0689C378.536 48.0711 380.235 49.0543 381.84 50.0375C382.954 50.7182 384.087 51.38 385.182 52.0418L384.314 53.5167V53.4978ZM66.1616 52.7225L65.0665 51.4179C66.7658 49.9808 68.5218 48.5627 70.2967 47.1824C71.1086 46.5584 71.9016 45.9344 72.7135 45.3294L73.7331 46.6908C72.9401 47.2958 72.1282 47.9009 71.3352 48.5249C69.5792 49.8863 67.8421 51.2855 66.1616 52.7036V52.7225ZM367.434 43.8734C364.639 42.3986 361.731 40.9048 358.786 39.4678L359.541 37.9362C362.506 39.3922 365.413 40.8859 368.227 42.3608L367.434 43.8734ZM81.5878 41.0372L80.6248 39.6191C83.306 37.7661 86.0438 35.9698 88.7816 34.2491L89.6879 35.705C86.969 37.4068 84.25 39.2031 81.5878 41.0183V41.0372ZM350.025 35.308C347.117 33.9655 344.134 32.6419 341.151 31.375L341.83 29.8057C344.814 31.0914 347.816 32.415 350.742 33.7575L350.025 35.308ZM97.9957 30.77L97.1649 29.2762C99.9783 27.6879 102.886 26.1374 105.775 24.6626L106.549 26.1942C103.679 27.6501 100.809 29.1817 98.0146 30.77H97.9957ZM332.182 27.669C329.199 26.4778 326.14 25.3055 323.119 24.1899L323.704 22.5827C326.744 23.6983 329.803 24.8895 332.805 26.0807L332.182 27.669ZM115.272 22.0154L114.574 20.446C117.519 19.1224 120.54 17.8367 123.561 16.6455L124.184 18.2338C121.201 19.425 118.199 20.6918 115.272 22.0154ZM313.98 20.9376C310.922 19.8977 307.825 18.8766 304.766 17.9123L305.276 16.2862C308.354 17.2505 311.469 18.2716 314.547 19.3115L313.999 20.9376H313.98ZM295.458 15.1328C292.342 14.2441 289.189 13.3932 286.092 12.5991L286.508 10.9351C289.623 11.7293 292.795 12.5802 295.911 13.4878L295.439 15.1328H295.458ZM133.266 14.8681L132.719 13.242C135.777 12.1831 138.893 11.181 142.008 10.2544L142.499 11.8995C139.422 12.8071 136.306 13.8092 133.285 14.8492L133.266 14.8681ZM276.671 10.3112C273.517 9.59267 270.326 8.91196 267.173 8.3069L267.494 6.62406C270.647 7.24803 273.857 7.92873 277.029 8.64725L276.652 10.3112H276.671ZM151.846 9.36577L151.43 7.70183C154.564 6.92659 157.755 6.20807 160.946 5.54628L161.286 7.22912C158.133 7.872 154.942 8.59053 151.846 9.36577ZM257.638 6.56733C254.447 6.0379 251.219 5.54628 248.046 5.1303L248.273 3.42855C251.464 3.86344 254.693 4.35506 257.921 4.8845L257.638 6.56733ZM170.803 5.50847L170.538 3.82563C173.71 3.31511 176.977 2.8613 180.205 2.48313L180.413 4.18488C177.203 4.56305 173.975 4.99795 170.821 5.50847H170.803ZM238.417 3.97689C235.188 3.65545 231.941 3.37183 228.75 3.14493L228.863 1.44318C232.073 1.67008 235.339 1.95371 238.587 2.27515L238.417 3.97689ZM190.043 3.23947L189.91 1.53772C193.12 1.29191 196.387 1.10283 199.653 0.970475L199.71 2.67223C196.481 2.80458 193.234 2.99366 190.043 3.23947ZM219.082 2.65331C215.986 2.53986 212.851 2.50204 209.793 2.50204H209.396V0.800293H209.793C212.87 0.800293 216.024 0.857025 219.158 0.970475L219.101 2.67223L219.082 2.65331Z" fill="#C2BEBC"/>
<path d="M17.9197 299.495C17.2022 298.077 16.4847 296.565 15.7861 295.014L17.3533 294.314C18.033 295.846 18.7505 297.321 19.4491 298.72L17.9197 299.495Z" fill="#C2BEBC"/>
<path d="M207.489 450.307H194.348V498.107H207.489V450.307Z" fill="#78C2FF"/>
<path d="M226.182 445.486H213.04V498.108H226.182V445.486Z" fill="#78C2FF"/>
<path d="M245.139 455.488H231.997V498.108H245.139V455.488Z" fill="#78C2FF"/>
<path d="M264.096 435.748H250.954V498.108H264.096V435.748Z" fill="#78C2FF"/>
<path d="M283.978 441.95H270.836V498.108H283.978V441.95Z" fill="#78C2FF"/>
<path d="M304.124 450.307H290.983V498.107H304.124V450.307Z" fill="#78C2FF"/>
<path d="M322.836 445.486H309.694V498.108H322.836V445.486Z" fill="#78C2FF"/>
<path d="M341.774 455.488H328.632V498.108H341.774V455.488Z" fill="#78C2FF"/>
<path d="M174.088 385.036C174.088 385.036 174.088 384.884 174.088 384.809C174.012 383.258 173.691 381.783 173.181 380.384C171.067 374.541 165.497 370.325 158.907 370.23C155.357 370.193 152.072 371.346 149.448 373.331C145.785 376.111 143.387 380.479 143.311 385.452C143.217 392.296 147.616 398.158 153.771 400.257C155.263 400.767 156.849 401.051 158.511 401.07C160.455 401.089 162.325 400.748 164.043 400.106C166.762 399.103 169.122 397.345 170.878 395.095C172.615 392.864 173.748 390.122 174.031 387.153C174.069 386.718 174.088 386.302 174.107 385.868C174.107 385.603 174.107 385.319 174.107 385.055L174.088 385.036ZM147.182 385.489C147.22 381.802 148.994 378.531 151.713 376.451C153.696 374.939 156.169 374.05 158.869 374.088C163.797 374.144 167.97 377.302 169.575 381.689C169.953 382.729 170.179 383.844 170.255 384.998C170.255 385.262 170.274 385.508 170.255 385.773C170.255 386.889 170.066 387.966 169.745 388.987C169.33 390.349 168.688 391.597 167.838 392.693C167.536 393.091 167.196 393.469 166.837 393.828C164.723 395.927 161.796 397.213 158.567 397.175C157.718 397.175 156.887 397.061 156.094 396.872C155.735 396.797 155.376 396.683 155.018 396.57C150.41 395 147.125 390.614 147.182 385.47V385.489Z" fill="#E3F2FF"/>
<g opacity="0.74">
<path d="M513.859 511.116H410.974C403.727 511.116 397.852 517 397.852 524.258V599.059C397.852 606.317 403.727 612.2 410.974 612.2H513.859C521.106 612.2 526.982 606.317 526.982 599.059V524.258C526.982 517 521.106 511.116 513.859 511.116Z" fill="#4DA8F2"/>
</g>
<path d="M465.145 521.441H511.235C515.672 521.441 519.259 525.033 519.259 529.477V591.95C519.259 596.393 515.672 599.986 511.235 599.986H465.145C460.708 599.986 457.121 596.393 457.121 591.95V529.477C457.121 525.033 460.708 521.441 465.145 521.441Z" fill="#E3F2FF"/>
<path d="M416.053 521.441H439.655C442.374 521.441 444.583 523.653 444.583 526.376V527.718C444.583 530.441 442.374 532.635 439.674 532.635H416.072C413.353 532.635 411.163 530.422 411.163 527.718V526.376C411.163 523.653 413.372 521.441 416.091 521.441H416.053Z" fill="#E3F2FF"/>
<path d="M416.053 542.353H439.655C442.374 542.353 444.564 544.565 444.564 547.269V548.612C444.564 551.334 442.355 553.528 439.655 553.528H416.053C413.334 553.528 411.144 551.316 411.144 548.612V547.269C411.144 544.546 413.353 542.353 416.053 542.353Z" fill="#E3F2FF"/>
</svg>
